# xmcd
# 
# Track frame offsets:
#     150
#     13044
#     26857
#     42718
#     66268
#     85939
#     99076
#     113556
#     132418
#     146253
#     164783
# 
# Disc length: 2485
# 
# Revision: 0
# Processed by: cddbd v1.5.2PL0 Copyright (c) Steve Scherf et al.
# Submitted via: BonkEnc v1.0.8
# 
DISCID=9609b30b
DTITLE=Randy Houser - Anything Goes
DYEAR=2008
DGENRE=Country
TTITLE0=Boots On
TTITLE1=Anything Goes
TTITLE2=Wild Wild West
TTITLE3=Back To God
TTITLE4=Something Real
TTITLE5=My Kind Of Country
TTITLE6=Strange
TTITLE7=Lie
TTITLE8=Paycheck Man
TTITLE9=How Many Times
TTITLE10=I'll Sleep
EXTD=
EXTT0=
EXTT1=
EXTT2=
EXTT3=
EXTT4=
EXTT5=
EXTT6=
EXTT7=
EXTT8=
EXTT9=
EXTT10=
PLAYORDER=
